<svg width="240" height="100" viewBox="0 0 240 100" fill="none" xmlns="http://www.w3.org/2000/svg">
<g clip-path="url(#clip0_342_8113)">
<path d="M23.7855 15.9112C23.0498 16.1522 22.6169 17.2039 22.3527 18.0062C22.0857 18.8172 21.7179 20.8046 22.4531 21.567C23.1828 22.3239 24.1681 20.6366 24.3882 18.4645C24.4415 17.9364 24.6164 15.6387 23.7855 15.9112Z" fill="white"/>
<path d="M39.4979 20.9873C38.6207 21.0252 37.3828 24.2306 38.3689 24.848C38.9144 25.1898 39.4506 24.5234 39.7037 23.6108C40.128 22.0801 39.7788 20.9752 39.4979 20.9873Z" fill="white"/>
<path d="M35.8145 22.9477C34.7399 23.7444 32.2877 25.4807 29.5806 27.144C30.5454 27.2424 31.4495 27.3066 32.2057 27.3349C34.5977 27.4229 37.4594 27.5662 39.2844 25.7309C40.4047 24.6031 40.6725 21.8733 40.4506 19.3278C38.9366 20.6541 37.4031 21.7681 35.8145 22.9477ZM39.7037 23.6105C39.4506 24.5233 38.9146 25.1895 38.3689 24.8477C37.3828 24.2303 38.6207 21.0251 39.4979 20.987C39.7788 20.9752 40.128 22.0801 39.7037 23.6105Z" fill="#F5CC23"/>
<path d="M24.6377 13.6118C24.0232 13.2575 23.132 13.518 22.4427 14.2069C19.6162 17.0287 18.3419 20.6818 17.6755 24.5022C17.5603 25.1581 17.3527 26.5663 17.3369 28.2295C17.3324 28.6551 17.3119 29.6227 17.5964 30.7739C17.6856 31.1387 17.8565 31.5279 18.0715 31.9171C18.4411 32.5862 19.1632 33.0312 19.7797 32.9042C20.6428 32.7273 21.4567 31.9392 22.0784 30.6592C23.1051 28.5443 24.0261 26.0242 24.5366 23.5419C24.9713 21.4222 25.3547 20.0018 25.4692 17.3272C25.4953 16.7027 25.4931 14.1046 24.6377 13.6118ZM24.388 18.4644C24.1678 20.6368 23.1828 22.3238 22.4529 21.567C21.7177 20.8043 22.0855 18.8169 22.3524 18.0061C22.6169 17.2036 23.0496 16.1519 23.7853 15.9111C24.6163 15.6386 24.4414 17.9364 24.388 18.4644Z" fill="#F5CC23"/>
<path d="M84.985 24.5804L76.1046 65.3296L74.1313 76.9058H72.917L74.8904 65.3296L80.0516 24.5804H63.2936C63.346 24.7957 63.4242 25.0655 63.5454 25.3954C63.6249 25.6098 63.7292 25.8435 63.8671 26.0924C64.0349 26.3965 64.3176 26.8185 64.6607 27.2264C64.4165 27.5446 64.1394 27.8628 64.0884 27.9236C63.9999 28.0306 63.909 28.1353 63.8181 28.2393C62.5666 29.6684 61.1141 30.8022 59.5229 31.4196L58.5931 36.8351C59.5775 37.0831 61.3193 37.6579 61.601 38.5173C62.2716 40.5635 60.1862 43.2519 59.702 43.8434C58.69 45.0795 57.7026 46.3587 56.7338 47.6667L49.3879 90.4579H60.3176L68.1352 45.2852L68.97 39.7327H70.1845L69.2737 45.2852L64.1126 90.4579H77.8503L88.2486 45.2852L89.1594 39.7327H90.3739L89.4629 45.2852L81.6453 90.4579H92.5748L103.884 24.5802L84.985 24.5804Z" fill="#8DC63F"/>
<path d="M120.579 23.4513C112.838 23.4513 106.691 29.2861 105.173 38.1328L98.4936 76.9059C97.0514 85.7523 101.15 91.5871 108.892 91.5871C116.634 91.5871 122.78 85.7523 124.298 76.9059L130.901 38.1328C132.495 29.2859 128.321 23.4513 120.579 23.4513ZM119.972 38.1325L113.37 76.9056C113.066 78.3164 112.155 79.2582 111.017 79.2582C109.802 79.2582 109.195 78.3164 109.423 76.9056L116.102 38.1325C116.33 36.7211 117.317 35.7797 118.455 35.7797C119.593 35.7797 120.276 36.7211 119.972 38.1325Z" fill="#8DC63F"/>
<path d="M143.879 44.4381L145.017 37.9445C145.244 36.6266 146.08 35.7797 147.142 35.7797C148.281 35.7797 148.812 36.6266 148.66 37.9445L147.066 46.6969H157.996L159.514 38.1328C161.032 29.2861 156.934 23.4513 149.267 23.4513C141.602 23.4513 135.606 29.2861 134.012 38.1328L132.646 46.0381C130.065 61.1881 144.562 62.5062 143.347 69.4702L142.057 76.9059C141.83 78.3167 140.843 79.2584 139.704 79.2584C138.565 79.2584 137.882 78.3167 138.186 76.9059L139.856 67.2112H128.926L127.256 76.9059C125.738 85.7523 129.837 91.5871 137.579 91.5871C145.32 91.5871 151.468 85.7523 152.986 76.9059L154.58 67.7764C157.162 52.7189 142.74 51.3081 143.879 44.4381Z" fill="#8DC63F"/>
<path d="M182.815 36.9091L184.94 24.5804H163.992L161.867 36.9091H166.876L157.693 90.4581H168.623L177.807 36.9091H182.815Z" fill="#8DC63F"/>
<path d="M211.126 38.0385C212.492 29.9449 208.697 24.5804 201.562 24.5804H187.672L176.363 90.4581H187.293L191.467 66.1769H193.213L192.226 90.4581H203.156L203.687 62.6943C206.116 60.4352 207.861 57.1415 208.545 53.0954L211.126 38.0385ZM199.968 39.2619L197.766 52.2481C197.539 53.7533 196.552 54.6945 195.414 54.6945H188.659L188.735 54.3181L193.896 51.9664L196.477 36.9091H198.45C199.588 36.9091 200.272 37.8502 199.968 39.2619Z" fill="#8DC63F"/>
<path d="M229.341 23.4513C221.599 23.4513 215.452 29.2861 213.934 38.1328L207.254 76.9059C205.813 85.7523 209.912 91.5871 217.653 91.5871C225.394 91.5871 231.542 85.7523 233.06 76.9059L239.664 38.1328C241.258 29.2859 237.083 23.4513 229.341 23.4513ZM228.734 38.1325L222.13 76.9056C221.827 78.3164 220.917 79.2582 219.778 79.2582C218.564 79.2582 217.956 78.3164 218.184 76.9056L224.863 38.1325C225.091 36.7211 226.077 35.7797 227.216 35.7797C228.354 35.7797 229.038 36.7211 228.734 38.1325Z" fill="#8DC63F"/>
<path d="M59.9638 40.0292C60.1632 39.1253 58.3304 38.6699 57.9737 38.603C57.3405 38.4836 56.7053 38.38 56.0665 38.2913C53.3164 37.9088 50.1575 37.8359 46.9491 37.9487C46.4743 38.9644 46.0076 39.9691 45.7939 40.4641C45.539 41.0541 44.6603 43.0206 43.7548 44.9095C42.8524 46.79 42.2034 48.2714 42.0851 48.1839C41.4641 47.7195 44.1097 40.6148 44.4876 39.6774C45.076 38.2169 45.6845 36.77 46.3092 35.3323C47.3078 33.0336 48.3479 30.7632 49.418 28.5087C49.318 28.4345 49.2157 28.3596 49.1092 28.2839C48.1563 27.6072 46.9309 26.3949 48.15 26.896C48.3071 26.9609 48.4582 26.9907 48.7102 27.1003C49.7636 27.5569 50.0363 27.7055 50.6392 28.0423C52.0692 28.8407 53.9251 29.6652 55.428 29.9665C58.3899 30.5594 61.0738 29.0891 63.1169 26.5589C62.9705 26.2751 62.8371 25.9854 62.7228 25.7383C62.1718 24.5383 62.1045 23.531 62.107 23.1277C62.1183 21.2441 63.9112 21.5255 65.4793 22.1518C66.0254 20.7466 66.5708 19.1451 67.1198 17.79C67.2366 17.5017 67.356 17.2147 67.4765 16.9286C67.5516 16.7488 67.7388 16.3449 67.6347 16.2268C67.5474 16.1277 67.1849 16.2912 67.0708 16.3514C66.8587 16.4628 66.6689 16.5688 66.5098 16.6635C65.4042 17.323 64.0683 18.0966 62.9418 18.7057C61.6716 19.3929 58.9209 20.7736 58.2845 21.0915C55.5879 22.4413 52.8138 23.9592 49.8619 23.7333C49.4064 23.6983 48.5157 23.3483 48.5522 23.2474C48.7017 22.8394 49.8986 22.8552 50.5124 22.7073C50.9968 22.5903 51.8011 22.3515 52.548 22.099C54.8128 17.567 57.1562 13.0523 59.4854 8.45338C59.645 8.13945 59.9351 7.42358 59.8283 6.78859C59.7397 6.2641 58.9982 5.74876 58.7094 5.61441C57.7023 5.14496 56.6774 4.74502 55.6412 4.42018C53.113 3.62855 50.5307 3.25268 47.9408 2.92939C45.3648 2.60855 42.7758 2.43365 40.189 2.5279C34.8823 2.72285 29.5401 3.6896 24.5014 5.58789C23.2075 6.07494 21.9311 6.61658 20.6611 7.17939C20.2741 7.35005 19.0237 7.94115 18.3321 8.9763C17.6209 10.0404 17.3092 11.162 17.1992 11.7961C15.9755 18.865 14.9667 25.8814 14.2417 32.8393C14.0913 34.2824 13.9511 35.728 13.8235 37.1742C13.8154 37.4028 13.7976 37.6232 13.766 37.8313C13.6715 38.9361 13.5886 40.041 13.5138 41.1457C17.4514 40.5392 21.2607 39.4731 24.9989 38.2512C25.4728 38.0964 25.9331 37.9422 26.3812 37.788C27.0772 35.4811 27.8615 33.123 28.5023 31.062C28.5883 30.7846 28.8842 29.9061 29.0938 29.948C29.4478 30.0204 30.4739 31.1059 30.6657 31.3327C31.6819 32.5285 32.6636 33.6579 33.6488 34.7407C36.5038 33.2457 39.0046 31.4811 41.8494 29.0777C42.7288 28.3347 45.0087 25.8943 44.9374 26.3421C44.9076 26.5286 44.4903 27.3414 43.8996 28.1208C42.5672 29.8816 40.0273 32.322 38.8898 33.1709C38.5026 33.4598 38.1051 33.7602 37.6867 34.0636C37.5742 34.1452 37.4603 34.2269 37.3445 34.3089C37.3019 34.339 37.2585 34.3691 37.2155 34.3992C37.1034 34.4776 36.9896 34.5558 36.8737 34.6342C36.8296 34.6641 36.7852 34.6942 36.7402 34.7238C36.6168 34.806 36.4907 34.888 36.3624 34.9698C36.3236 34.9945 36.2855 35.0195 36.2463 35.0442C36.0776 35.1503 35.9052 35.2561 35.7271 35.3606C35.0287 35.7708 34.3192 36.1591 33.6029 36.5321C32.9967 35.8247 32.3026 34.9983 31.319 33.8736C31.1182 33.6454 30.1784 32.6161 29.8103 32.1914C29.7636 32.1366 29.7272 32.0911 29.7005 32.0608C29.6633 32.0192 29.6372 32.0339 29.6094 32.0847C29.5887 32.1221 29.422 32.625 29.3975 32.7068C28.7906 34.7853 28.1395 36.9902 27.5716 39.1596C26.9663 39.3755 26.3582 39.5834 25.7446 39.775C24.9784 40.0138 24.207 40.2534 23.4315 40.4902C23.382 40.5051 23.3328 40.5203 23.2831 40.5354C22.4939 40.7758 21.7 41.0131 20.9013 41.2424C17.33 42.268 13.6601 43.1445 9.88339 43.5123C9.72654 43.5273 9.39567 43.5872 9.33774 43.7897C9.28093 43.9876 9.49237 44.3267 9.59865 44.4555C9.76575 44.658 9.92973 44.8398 10.0861 44.9971C12.273 47.189 14.7365 48.828 17.2393 50.0507C19.4849 51.1483 21.7952 51.9769 24.1141 52.5464C25.8551 52.975 27.6037 53.2567 29.3344 53.3955C31.0545 53.5343 34.383 53.5182 34.3438 53.7433C34.2602 54.2245 32.3811 54.8016 28.8111 54.8691C28.1794 54.8809 27.4522 54.8651 26.7069 54.8165C26.0539 60.1803 25.5305 65.5203 25.1344 70.8179C24.9699 73.0076 24.8157 75.1996 24.6861 77.3893C24.3884 82.4476 24.2264 87.4868 24.3877 92.4382C24.4065 92.9983 24.4276 93.5566 24.455 94.1132C24.4827 94.6816 24.5765 96.3736 24.9258 96.6302C25.4037 96.9809 26.5342 94.3382 26.8049 93.8004C27.845 91.7368 28.9136 89.6972 29.9772 87.6728C33.127 81.6809 36.4042 75.7483 39.8762 70.0004C41.8451 66.7392 43.9139 63.573 45.9563 60.3824C48.8699 55.8276 51.8196 51.2984 54.9496 47.0101C55.9716 45.6091 57.0277 44.1963 58.119 42.8096C58.4256 42.4208 59.559 40.9735 59.7934 40.488C59.8702 40.3276 59.9319 40.17 59.9638 40.0292ZM48.7204 25.4545C50.6624 25.7579 52.4272 25.512 54.3251 25.4135C56.7002 25.2898 59.4536 24.6858 59.3928 25.2277C57.1471 25.8983 53.6137 27.3229 51.2412 26.9395C49.1059 26.5939 47.9355 25.3319 48.7204 25.4545ZM25.6472 26.1158C25.137 28.3719 24.3432 31.0916 23.0353 33.551C22.3125 34.9085 20.6881 36.6413 19.0618 36.3405C15.7066 35.7175 15.3002 30.1236 15.7501 27.06C16.5417 21.6788 18.204 16.3667 21.6989 13.1093C21.7221 13.083 21.7477 13.0583 21.7756 13.0347C22.8152 12.1348 24.3365 11.3414 25.6303 12.776C26.3825 13.6095 26.6334 15.2888 26.6617 16.9692C26.6828 18.1957 26.8675 20.7083 25.6472 26.1158ZM43.692 15.4477C43.335 16.2774 42.8342 16.9578 42.3712 17.4828C42.6523 20.3389 42.5104 22.5319 42.2495 23.7119C41.9512 25.0603 41.4084 26.2577 40.3664 27.1487C38.1127 29.0759 35.7619 28.9175 32.9225 28.8181C31.9439 28.7845 29.209 28.2166 27.1686 27.7739C26.9783 27.7326 26.6256 27.6395 26.6093 27.4965C26.5975 27.3831 26.8863 27.2195 27.0003 27.1585C27.1701 27.0687 27.3386 26.9785 27.5054 26.8871C31.0217 24.9619 34.0739 22.6888 35.341 21.7408C36.9116 20.567 38.5494 19.2291 40.1609 17.7695C40.8363 17.1583 41.5956 16.4614 42.2774 15.8463C43.3843 14.8465 43.7365 14.6649 43.8283 14.8093C43.8682 14.8715 43.823 15.1444 43.692 15.4477Z" fill="#8DC63F"/>
<path d="M12.783 29.6891C10.995 29.1557 7.95702 27.9564 7.76385 27.5268C7.52589 27.1066 10.1623 28.0339 11.3407 28.2944C11.8775 28.4256 12.3991 28.5317 12.8924 28.6195C12.9173 28.3833 12.9396 28.1812 12.9581 28.0212C12.9966 27.6895 13.0358 27.3519 13.0753 27.0108C12.5526 26.9235 11.9891 26.8103 11.3668 26.6557C7.40156 25.6706 4.36608 24.5256 2.50321 23.7886C2.33923 23.7238 1.75392 23.4736 1.64051 23.6489C1.54315 23.7998 1.84259 24.3155 1.93194 24.4633C2.14494 24.8137 2.33143 25.1228 2.47714 25.3676C3.23891 26.6447 4.01316 27.8646 5.10802 28.7509C7.09543 30.3598 9.64565 30.9776 11.6758 30.3749C12.0448 30.2655 12.4031 30.1305 12.7542 29.979C12.764 29.8799 12.7736 29.7834 12.783 29.6891Z" fill="#8DC63F"/>
<path d="M61.6008 38.5178C61.3192 37.6585 59.5775 37.0836 58.5929 36.8357C58.3625 36.7777 58.1734 36.7374 58.0544 36.7156C57.6663 36.644 57.2784 36.5783 56.8894 36.5168C53.8964 36.046 50.8699 35.9558 47.8212 36.0826C47.9705 35.762 48.0968 35.4888 48.1844 35.2952C49.0515 33.3797 49.9503 31.4797 50.8694 29.5872C51.035 29.6999 51.2058 29.8111 51.3901 29.9207C52.8401 30.7841 54.2841 31.6232 55.8299 31.8551C57.12 32.0489 58.3581 31.872 59.5227 31.4202C61.114 30.8028 62.5664 29.6689 63.8179 28.2399C63.9088 28.1358 63.9995 28.0311 64.0882 27.9242C64.1392 27.8633 64.4164 27.5449 64.6606 27.227C64.3174 26.819 64.0347 26.3971 63.8669 26.0929C63.729 25.8441 63.625 25.6103 63.5452 25.396C63.4242 25.066 63.3458 24.7964 63.2934 24.581C63.2571 24.4321 63.2331 24.3085 63.217 24.212C63.1315 23.6969 63.1689 23.2805 63.2847 23.0443C63.4066 22.7934 63.6653 22.7012 64.1093 22.7669C64.2288 22.7849 64.3491 22.8072 64.4689 22.8344C64.6873 22.8839 65.2378 23.0218 66.0994 23.5202C66.148 23.5487 66.2001 23.5835 66.2514 23.6176C66.3695 23.2546 66.506 22.8351 66.5606 22.6606C66.8077 21.873 67.051 21.0707 67.3275 20.2724C67.4514 19.9141 68.1835 17.9234 68.3783 17.2529C68.6104 16.4495 68.884 15.188 68.5581 14.8716C68.2758 14.5962 67.2511 14.9993 66.7188 15.2114C65.7454 15.5995 60.8092 18.2671 59.9353 18.6539C58.672 19.2143 56.7902 20.2185 55.1947 20.9914C56.278 18.8952 57.3744 16.7991 58.4775 14.6947C59.4603 12.8191 60.4404 10.9302 61.4125 9.02254C61.6641 8.52903 62.2447 7.20245 61.9573 6.00243C61.685 4.87058 60.4257 3.95508 59.903 3.69573C59.4451 3.46892 58.9839 3.25547 58.5216 3.05227C53.7157 0.938083 48.5233 0.304872 43.4712 0.0566683C38.1598 -0.204681 32.8728 0.455488 27.7267 1.87631C25.0444 2.61691 22.4616 3.64337 19.8945 4.74559C19.3811 4.96616 18.7702 5.13928 17.6858 5.90818C17.4202 6.0969 16.8719 6.67418 16.6386 7.00705C16.4292 7.30561 16.2106 7.62823 16.0593 7.98293C15.4847 9.33224 15.2236 10.9863 15.0995 11.7383C14.3925 16.0545 13.7649 21.1322 13.2353 25.6406C11.3036 25.2507 9.80811 24.769 8.89261 24.4829C6.23678 23.6546 3.82158 22.8718 2.65164 22.4768C2.52709 22.4354 1.89566 22.1983 1.28852 22.0439C0.495558 21.8423 0.296817 21.8376 0.0978525 22.0394C-0.148569 22.2908 0.0998578 23.245 0.4989 24.0026C1.06237 25.0698 1.68645 26.6138 3.25633 28.8007C3.71686 29.4426 4.67715 30.3944 5.25422 30.7872C7.37197 32.2303 10.0594 32.7517 12.1545 31.8306C12.3051 31.7644 12.4519 31.6953 12.5972 31.6245C12.3316 34.486 12.013 38.2959 11.8662 41.0863C11.861 41.1855 11.853 41.2773 11.8454 41.3708C11.036 41.4666 10.2214 41.5442 9.40016 41.5959C8.86008 41.6304 7.42344 41.8062 7.02039 42.5564C6.55495 43.4229 7.3615 44.7332 7.75297 45.2073C8.03571 45.5486 8.32513 45.8742 8.61321 46.1834C10.8604 48.5939 13.457 50.3398 16.0714 51.7154C18.5559 53.0222 21.0092 53.7425 23.6064 54.3826C24.0834 54.5 24.6121 54.5932 25.1602 54.6658C24.2202 62.1262 23.4114 69.8147 22.9669 77.1129C22.901 78.1821 22.8444 79.2456 22.7954 80.2974C22.7167 81.9785 22.6356 87.6034 22.6918 89.4552C22.7753 92.2037 22.9386 95.4143 23.1935 96.7868C23.4148 97.9839 23.9368 99.097 24.5083 99.3285C24.9207 99.4965 25.4737 99.0734 26.0062 98.472C26.7462 97.637 28.892 93.4159 29.4746 92.2861C29.7707 91.7122 32.7084 86.3205 33.8057 84.3104C34.8863 82.3299 35.9838 80.3612 37.0907 78.402C40.4742 72.4142 43.9353 66.9394 47.6178 61.1987C50.5457 56.6334 53.5337 51.9861 56.733 47.6668C57.7019 46.3588 58.6892 45.0799 59.7012 43.8435C60.1862 43.2522 62.2714 40.5641 61.6008 38.5178ZM11.6757 30.3754C9.64569 30.9781 7.09525 30.3603 5.10783 28.7514C4.01275 27.8651 3.23873 26.6453 2.47696 25.3681C2.33124 25.1235 2.14476 24.8142 1.93176 24.4638C1.84241 24.3161 1.54296 23.8003 1.64033 23.6494C1.75351 23.4741 2.33882 23.7245 2.50303 23.7891C4.36589 24.5262 7.40138 25.6709 11.3666 26.6562C11.9889 26.8108 12.5524 26.924 13.0751 27.0113C13.0354 27.3524 12.9962 27.6898 12.9579 28.0217C12.9394 28.1815 12.9171 28.3838 12.8922 28.62C12.3989 28.5322 11.8773 28.4261 11.3406 28.2949C10.1622 28.0344 7.52571 27.1071 7.76366 27.5273C7.95683 27.9569 10.9948 29.1565 12.7828 29.6897C12.7734 29.7839 12.7638 29.8804 12.7543 29.9797C12.4027 30.131 12.0446 30.2658 11.6757 30.3754ZM54.9492 47.0091C51.8192 51.2974 48.8693 55.8266 45.9559 60.3814C43.9135 63.572 41.8447 66.7382 39.8758 69.9994C36.4038 75.7476 33.1266 81.6802 29.9768 87.6718C28.9131 89.6962 27.8446 91.7358 26.8045 93.7994C26.5338 94.3372 25.4033 96.9799 24.9254 96.6292C24.576 96.3726 24.482 94.6806 24.4546 94.1122C24.4272 93.5556 24.406 92.9973 24.3873 92.4372C24.226 87.4858 24.388 82.4466 24.6857 77.3883C24.8153 75.1986 24.9695 73.0066 25.1339 70.8169C25.5301 65.5193 26.0535 60.1793 26.7065 54.8155C27.4518 54.8643 28.179 54.8799 28.8107 54.8681C32.3807 54.8006 34.2598 54.2235 34.3433 53.7423C34.3823 53.5172 31.0538 53.5333 29.334 53.3945C27.6033 53.2557 25.8547 52.9741 24.1137 52.5454C21.7948 51.9757 19.4845 51.1473 17.2389 50.0497C14.7359 48.827 12.2723 47.1883 10.0857 44.9961C9.92932 44.8388 9.76534 44.657 9.59823 44.4545C9.49196 44.3255 9.28051 43.9866 9.33733 43.7887C9.39504 43.5862 9.72612 43.5265 9.88298 43.5113C13.6597 43.1435 17.3295 42.267 20.9009 41.2414C21.6996 41.0121 22.4933 40.7748 23.2827 40.5344C23.3321 40.5195 23.3816 40.5044 23.431 40.4892C24.2064 40.2524 24.978 40.0129 25.7442 39.774C26.3578 39.5824 26.9658 39.3745 27.5712 39.1586C28.1389 36.9889 28.7902 34.7843 29.3971 32.7058C29.4216 32.624 29.5882 32.1211 29.609 32.0837C29.6368 32.0329 29.6629 32.0182 29.7001 32.0598C29.7271 32.0902 29.7631 32.1356 29.8099 32.1904C30.1782 32.6151 31.118 33.6444 31.3185 33.8726C32.3024 34.9973 32.9965 35.8237 33.6025 36.5311C34.3188 36.1581 35.0282 35.7698 35.7267 35.3596C35.9047 35.2549 36.0772 35.1493 36.2459 35.0432C36.2851 35.0185 36.3232 34.9935 36.3619 34.9688C36.4903 34.887 36.6164 34.805 36.7398 34.7228C36.7846 34.693 36.8289 34.6631 36.8733 34.6332C36.9891 34.5548 37.103 34.4766 37.2151 34.3982C37.2581 34.3681 37.3015 34.338 37.3441 34.3079C37.4599 34.226 37.5738 34.1442 37.6863 34.0626C38.1045 33.7592 38.5022 33.4588 38.8894 33.1699C40.0269 32.321 42.5668 29.8806 43.8992 28.1198C44.4898 27.3404 44.9072 26.5276 44.937 26.3411C45.0083 25.8933 42.7284 28.3337 41.8489 29.0767C39.0042 31.4801 36.5034 33.2447 33.6484 34.7397C32.6634 33.6567 31.6815 32.5273 30.6653 31.3317C30.4734 31.1049 29.4474 30.0194 29.0934 29.947C28.8837 29.9051 28.5876 30.7836 28.5019 31.061C27.8613 33.1222 27.0768 35.4801 26.3808 37.787C25.9327 37.9412 25.4726 38.0954 24.9985 38.2502C21.2603 39.4719 17.451 40.5382 13.5134 41.1447C13.5882 40.04 13.6711 38.9351 13.7656 37.8303C13.7843 37.6112 13.8037 37.3922 13.8231 37.1732C13.9509 35.727 14.0911 34.2814 14.2413 32.8383C14.9663 25.8804 15.9751 18.864 17.1988 11.7951C17.3088 11.161 17.6205 10.0394 18.3317 8.97531C19.0233 7.94016 20.2737 7.34906 20.6607 7.17839C21.9307 6.61558 23.2071 6.07372 24.501 5.5869C29.5397 3.6886 34.8819 2.72185 40.1886 2.5269C42.7751 2.43265 45.3641 2.60733 47.9404 2.92839C50.5303 3.25191 53.1124 3.62778 55.6408 4.41918C56.677 4.74403 57.7019 5.14396 58.709 5.61341C58.9978 5.74776 59.7393 6.26311 59.8279 6.78759C59.9347 7.4228 59.6446 8.13845 59.485 8.45238C57.1558 13.0515 54.8124 17.566 52.5476 22.098C51.8005 22.3505 50.9964 22.5893 50.512 22.7063C49.8982 22.8542 48.7013 22.8386 48.5518 23.2464C48.5153 23.3473 49.406 23.6973 49.8614 23.7323C52.8134 23.958 55.5875 22.44 58.2841 21.0905C58.9204 20.7724 61.6712 19.3916 62.9414 18.7047C64.0679 18.0958 65.4038 17.3222 66.5094 16.6625C66.6685 16.5676 66.8583 16.4618 67.0704 16.3504C67.1845 16.2902 67.547 16.1269 67.6343 16.2258C67.7384 16.3439 67.5512 16.7481 67.4761 16.9276C67.3556 17.2139 67.2364 17.5007 67.1194 17.789C66.5707 19.1441 66.025 20.7458 65.4789 22.1508C63.9108 21.5245 62.1179 21.2434 62.1066 23.1267C62.1039 23.53 62.1714 24.5373 62.7224 25.7373C62.8365 25.9842 62.9701 26.2741 63.1165 26.5579C61.0734 29.0881 58.3895 30.5586 55.4275 29.9655C53.9247 29.6643 52.069 28.8397 50.6388 28.0413C50.0359 27.7045 49.763 27.5559 48.7098 27.0993C48.4578 26.9897 48.3067 26.9599 48.1496 26.895C46.9304 26.3939 48.1559 27.6062 49.1088 28.2829C49.2153 28.3586 49.3176 28.4335 49.4176 28.5077C48.3477 30.7622 47.3077 33.0326 46.3088 35.3313C45.6841 36.7693 45.0756 38.2159 44.4872 39.6764C44.1093 40.6138 41.4637 47.7185 42.0847 48.1829C42.203 48.2704 42.852 46.789 43.7544 44.9085C44.6598 43.0196 45.5386 41.0533 45.7935 40.4631C46.0071 39.9681 46.4739 38.9634 46.9487 37.9477C50.1571 37.8349 53.3162 37.9078 56.0661 38.2903C56.7049 38.379 57.3401 38.4826 57.9733 38.6021C58.3302 38.6689 60.1628 39.1245 59.9634 40.0282C59.9315 40.1693 59.8698 40.3266 59.7925 40.4859C59.5583 40.9714 58.4247 42.4187 58.1181 42.8075C57.0275 44.1953 55.9712 45.6081 54.9492 47.0091Z" fill="black"/>
<path d="M42.2774 15.8467C41.5958 16.4618 40.8365 17.1588 40.161 17.7699C38.5494 19.2293 36.9116 20.5675 35.341 21.7412C34.0739 22.6892 31.0217 24.9623 27.5054 26.8875C27.3386 26.9789 27.1701 27.0691 27.0004 27.1589C26.8863 27.22 26.5975 27.3835 26.6093 27.4969C26.6256 27.6402 26.9781 27.7333 27.1686 27.7743C29.209 28.217 31.9439 28.7847 32.9225 28.8186C35.7619 28.918 38.1127 29.0764 40.3664 27.1491C41.4084 26.2581 41.951 25.0608 42.2495 23.7123C42.5104 22.5324 42.6526 20.3393 42.3712 17.4832C42.8344 16.9583 43.3353 16.2778 43.692 15.4481C43.823 15.1449 43.8682 14.8719 43.8283 14.8102C43.7365 14.6654 43.3843 14.847 42.2774 15.8467ZM39.2842 25.731C37.4595 27.5662 34.5978 27.4229 32.2055 27.3349C31.4493 27.3066 30.5452 27.2422 29.5804 27.144C32.2875 25.4807 34.7397 23.7444 35.8143 22.9477C37.4029 21.7682 38.9364 20.6541 40.4502 19.3278C40.6725 21.8733 40.4047 24.6033 39.2842 25.731Z" fill="black"/>
<path d="M26.6619 16.9694C26.6336 15.289 26.3827 13.6097 25.6305 12.7762C24.3367 11.3416 22.8154 12.135 21.7758 13.0349C21.748 13.0585 21.7223 13.0832 21.6992 13.1095C18.2043 16.3669 16.5419 21.6788 15.7503 27.0602C15.3002 30.1238 15.7068 35.7175 19.0621 36.3407C20.6883 36.6415 22.313 34.9087 23.0355 33.5512C24.3436 31.0918 25.1375 28.3723 25.6475 26.1159C26.8676 20.7083 26.6829 18.1957 26.6619 16.9694ZM25.469 17.3274C25.3547 20.002 24.971 21.4224 24.5364 23.5421C24.0257 26.0244 23.1048 28.5445 22.0782 30.6594C21.4563 31.9394 20.6424 32.7274 19.7795 32.9044C19.163 33.0313 18.4409 32.5864 18.0712 31.9173C17.8562 31.5281 17.6853 31.1388 17.5962 30.7741C17.3117 29.6229 17.3322 28.6552 17.3367 28.2297C17.3525 26.5665 17.5601 25.1581 17.6753 24.5024C18.3419 20.6817 19.6162 17.0286 22.4424 14.2071C23.1318 13.5181 24.023 13.2577 24.6375 13.6119C25.4931 14.1046 25.4953 16.7027 25.469 17.3274Z" fill="black"/>
<path d="M51.241 26.9395C53.6134 27.3229 57.1469 25.8983 59.3925 25.2277C59.4534 24.6858 56.7002 25.2899 54.3249 25.4135C52.427 25.512 50.6622 25.758 48.7202 25.4545C47.9355 25.332 49.1059 26.5939 51.241 26.9395Z" fill="black"/>
</g>
<defs>
<clipPath id="clip0_342_8113">
<rect width="240" height="99.3656" fill="white"/>
</clipPath>
</defs>
</svg>
