<svg width="10" height="18" viewBox="0 0 10 18" fill="none" xmlns="http://www.w3.org/2000/svg">
<path d="M4.02495 18V15.85C3.14162 15.65 2.37912 15.2667 1.73745 14.7C1.09578 14.1333 0.624951 13.3333 0.324951 12.3L2.17495 11.55C2.42495 12.35 2.79578 12.9583 3.28745 13.375C3.77912 13.7917 4.42495 14 5.22495 14C5.90828 14 6.48745 13.8458 6.96245 13.5375C7.43745 13.2292 7.67495 12.75 7.67495 12.1C7.67495 11.5167 7.49162 11.0542 7.12495 10.7125C6.75828 10.3708 5.90828 9.98333 4.57495 9.55C3.14162 9.1 2.15828 8.5625 1.62495 7.9375C1.09162 7.3125 0.824951 6.55 0.824951 5.65C0.824951 4.56667 1.17495 3.725 1.87495 3.125C2.57495 2.525 3.29162 2.18333 4.02495 2.1V0H6.02495V2.1C6.85828 2.23333 7.54578 2.5375 8.08745 3.0125C8.62912 3.4875 9.02495 4.06667 9.27495 4.75L7.42495 5.55C7.22495 5.01667 6.94162 4.61667 6.57495 4.35C6.20828 4.08333 5.70828 3.95 5.07495 3.95C4.34162 3.95 3.78328 4.1125 3.39995 4.4375C3.01662 4.7625 2.82495 5.16667 2.82495 5.65C2.82495 6.2 3.07495 6.63333 3.57495 6.95C4.07495 7.26667 4.94162 7.6 6.17495 7.95C7.32495 8.28333 8.19579 8.8125 8.78745 9.5375C9.37912 10.2625 9.67495 11.1 9.67495 12.05C9.67495 13.2333 9.32495 14.1333 8.62495 14.75C7.92495 15.3667 7.05828 15.75 6.02495 15.9V18H4.02495Z" fill="#1C1B1F"/>
</svg>
