<svg width="18" height="21" viewBox="0 0 18 21" fill="none" xmlns="http://www.w3.org/2000/svg">
<path d="M1.6875 20.975C1.27083 20.975 0.90625 20.825 0.59375 20.525C0.28125 20.225 0.125 19.875 0.125 19.475V4.39998H1.6875V19.475H14.0313V20.975H1.6875ZM4.8125 17.975C4.39583 17.975 4.03125 17.825 3.71875 17.525C3.40625 17.225 3.25 16.875 3.25 16.475V2.47498C3.25 2.07498 3.40625 1.72498 3.71875 1.42498C4.03125 1.12498 4.39583 0.974976 4.8125 0.974976H16.2708C16.6875 0.974976 17.0521 1.12498 17.3646 1.42498C17.6771 1.72498 17.8333 2.07498 17.8333 2.47498V16.475C17.8333 16.875 17.6771 17.225 17.3646 17.525C17.0521 17.825 16.6875 17.975 16.2708 17.975H4.8125ZM4.8125 16.475H16.2708V2.47498H4.8125V16.475Z" fill="black"/>
</svg>
