<svg width="11" height="14" viewBox="0 0 11 14" fill="none" xmlns="http://www.w3.org/2000/svg">
<path d="M2.75 13.75V12.25H0.5V10.75H2V3.25H0.5V1.75H2.75V0.25H4.25V1.75H5.75V0.25H7.25V1.84375C7.9 2.01875 8.4375 2.37188 8.8625 2.90313C9.2875 3.43438 9.5 4.05 9.5 4.75C9.5 5.1125 9.4375 5.45938 9.3125 5.79063C9.1875 6.12188 9.0125 6.41875 8.7875 6.68125C9.225 6.94375 9.57812 7.3 9.84688 7.75C10.1156 8.2 10.25 8.7 10.25 9.25C10.25 10.075 9.95625 10.7812 9.36875 11.3687C8.78125 11.9563 8.075 12.25 7.25 12.25V13.75H5.75V12.25H4.25V13.75H2.75ZM3.5 6.25H6.5C6.9125 6.25 7.26563 6.10313 7.55938 5.80937C7.85313 5.51562 8 5.1625 8 4.75C8 4.3375 7.85313 3.98438 7.55938 3.69063C7.26563 3.39688 6.9125 3.25 6.5 3.25H3.5V6.25ZM3.5 10.75H7.25C7.6625 10.75 8.01563 10.6031 8.30938 10.3094C8.60313 10.0156 8.75 9.6625 8.75 9.25C8.75 8.8375 8.60313 8.48438 8.30938 8.19063C8.01563 7.89688 7.6625 7.75 7.25 7.75H3.5V10.75Z" fill="#1C1B1F"/>
</svg>
