<svg width="13" height="12" viewBox="0 0 13 12" fill="none" xmlns="http://www.w3.org/2000/svg">
<path d="M5.75006 12C5.53756 12 5.35944 11.9281 5.21569 11.7844C5.07194 11.6406 5.00006 11.4625 5.00006 11.25V6.75L0.65006 1.2C0.46256 0.95 0.434435 0.6875 0.565685 0.4125C0.696935 0.1375 0.92506 0 1.25006 0H11.7501C12.0751 0 12.3032 0.1375 12.4344 0.4125C12.5657 0.6875 12.5376 0.95 12.3501 1.2L8.00006 6.75V11.25C8.00006 11.4625 7.92819 11.6406 7.78444 11.7844C7.64069 11.9281 7.46256 12 7.25006 12H5.75006ZM6.50006 6.225L10.2126 1.5H2.78756L6.50006 6.225Z" fill="#1C1B1F"/>
</svg>
