<svg width="18" height="18" viewBox="0 0 18 18" fill="none" xmlns="http://www.w3.org/2000/svg">
<path d="M5 14C5.28333 14 5.52083 13.9042 5.7125 13.7125C5.90417 13.5208 6 13.2833 6 13C6 12.7167 5.90417 12.4792 5.7125 12.2875C5.52083 12.0958 5.28333 12 5 12C4.71667 12 4.47917 12.0958 4.2875 12.2875C4.09583 12.4792 4 12.7167 4 13C4 13.2833 4.09583 13.5208 4.2875 13.7125C4.47917 13.9042 4.71667 14 5 14ZM5 10C5.28333 10 5.52083 9.90417 5.7125 9.7125C5.90417 9.52083 6 9.28333 6 9C6 8.71667 5.90417 8.47917 5.7125 8.2875C5.52083 8.09583 5.28333 8 5 8C4.71667 8 4.47917 8.09583 4.2875 8.2875C4.09583 8.47917 4 8.71667 4 9C4 9.28333 4.09583 9.52083 4.2875 9.7125C4.47917 9.90417 4.71667 10 5 10ZM5 6C5.28333 6 5.52083 5.90417 5.7125 5.7125C5.90417 5.52083 6 5.28333 6 5C6 4.71667 5.90417 4.47917 5.7125 4.2875C5.52083 4.09583 5.28333 4 5 4C4.71667 4 4.47917 4.09583 4.2875 4.2875C4.09583 4.47917 4 4.71667 4 5C4 5.28333 4.09583 5.52083 4.2875 5.7125C4.47917 5.90417 4.71667 6 5 6ZM8 14H14V12H8V14ZM8 10H14V8H8V10ZM8 6H14V4H8V6ZM2 18C1.45 18 0.979167 17.8042 0.5875 17.4125C0.195833 17.0208 0 16.55 0 16V2C0 1.45 0.195833 0.979167 0.5875 0.5875C0.979167 0.195833 1.45 0 2 0H16C16.55 0 17.0208 0.195833 17.4125 0.5875C17.8042 0.979167 18 1.45 18 2V16C18 16.55 17.8042 17.0208 17.4125 17.4125C17.0208 17.8042 16.55 18 16 18H2ZM2 16H16V2H2V16Z" fill="#1C1B1F"/>
</svg>
